Down on their luck brothers Lars and Ernie Smuntz (Lane and Evans) don't think much of the crumbling old mansion they inherit, until they discover that their dilapidated estate is actually worth millions. But before they can cash in, they've got to rid the house of its single, stubborn occupant: a tiny and tenacious mouse. What might seem like child's play becomes an epic battle of hysterical proportions...


Format : MPEG-4
Format profile : Base Media / Version 2
Codec ID : mp42
File size : 800 MiB
Duration : 1h 33mn
Overall bit rate : 1 195 Kbps
Encoded date : UTC 2009-10-01 07:39:56
Tagged date : UTC 2009-10-01 11:50:38
Writing application : HandBrake 0.9.3 2008112300

Video
ID : 1
Format : AVC
Format/Info : Advanced Video Codec
Format profile : Main@L4.0
Format settings, CABAC : Yes
Format settings, ReFrames : 3 frames
Codec ID : avc1
Codec ID/Info : Advanced Video Coding
Duration : 1h 33mn
Bit rate mode : Variable
Bit rate : 1 031 Kbps
Width : 714 pixels
Height : 526 pixels
Display aspect ratio : 1.931
Original display aspect ratio : 1.932
Frame rate mode : Variable
Frame rate : 25.000 fps
Minimum frame rate : 12.500 fps
Maximum frame rate : 25.000 fps
Resolution : 24 bits
Colorimetry : 4:2:0
Scan type : Progressive
Bits/(Pixel*Frame) : 0.110
Stream size : 690 MiB (86%)
Writing library : x264 core 65


Audio
ID : 2
Format : AAC
Format/Info : Advanced Audio Codec
Format version : Version 4
Format profile : LC
Format settings, SBR : No
Codec ID : 40
Duration : 1h 33mn
Bit rate mode : Variable
Bit rate : 160 Kbps
Maximum bit rate : 215 Kbps
Channel(s) : 2 channels
Channel positions : L R
Sampling rate : 48.0 KHz
Resolution : 16 bits
Stream size : 107 MiB (13%)
Language : English
Encoded date : UTC 2009-10-01 07:39:56
Tagged date : UTC 2009-10-01 11:50:32 